<svg width="32" height="32" viewBox="0 0 32 32" fill="none" xmlns="http://www.w3.org/2000/svg">
<rect width="32" height="32" rx="16" fill="#14142B"/>
<path d="M17.6123 11.6599C17.2949 11.6013 17.0034 11.8038 16.943 12.1136C16.8826 12.4234 17.0858 12.7259 17.3945 12.7865C18.324 12.9677 19.0417 13.6872 19.2236 14.6199V14.6206C19.2754 14.8891 19.5118 15.0843 19.784 15.0843C19.8205 15.0843 19.857 15.0809 19.8942 15.0743C20.2029 15.0123 20.4061 14.7105 20.3457 14.4001C20.0741 13.007 19.0019 11.9311 17.6123 11.6599Z" fill="#FCFCFC"/>
<path d="M17.5707 9.3386C17.422 9.31728 17.2726 9.36125 17.1538 9.45585C17.0316 9.55179 16.9553 9.69036 16.9387 9.84558C16.9035 10.1594 17.1299 10.4432 17.4433 10.4785C19.6044 10.7197 21.2841 12.4032 21.5271 14.571C21.5596 14.8615 21.8033 15.0807 22.0941 15.0807C22.116 15.0807 22.1373 15.0793 22.1592 15.0767C22.3112 15.06 22.4467 14.9847 22.5423 14.8648C22.6372 14.7449 22.6804 14.5957 22.6631 14.4431C22.3604 11.7383 20.267 9.63906 17.5707 9.3386Z" fill="#FCFCFC"/>
<path fill-rule="evenodd" clip-rule="evenodd" d="M15.3545 16.6483C18.0139 19.3069 18.6172 16.2311 20.3105 17.9232C21.9429 19.5552 22.8811 19.8821 20.8129 21.9498C20.5538 22.158 18.9078 24.6628 13.1231 18.8798C7.33772 13.096 9.8411 11.4483 10.0494 11.1893C12.1226 9.1159 12.4439 10.0596 14.0764 11.6916C15.7696 13.3843 12.6951 13.9896 15.3545 16.6483Z" fill="#FCFCFC"/>
</svg>
