<svg width="24" height="25" viewBox="0 0 24 25" fill="none" xmlns="http://www.w3.org/2000/svg">
<path d="M6.55973 8.9631C6.74973 8.9631 6.93973 9.0331 7.08973 9.1831C7.37973 9.4731 7.37973 9.9531 7.08973 10.2431L5.05973 12.2731L7.08973 14.3031C7.37973 14.5931 7.37973 15.0731 7.08973 15.3631C6.79973 15.6531 6.31973 15.6531 6.02973 15.3631L3.46973 12.8031C3.17973 12.5131 3.17973 12.0331 3.46973 11.7431L6.02973 9.1831C6.17973 9.0331 6.36973 8.9631 6.55973 8.9631Z" fill="#14142B"/>
<path d="M4.74999 11.3333L14.92 11.3333C15.33 11.3333 15.67 11.6733 15.67 12.0833C15.67 12.4933 15.33 12.8333 14.92 12.8333L4.74999 12.8333C4.33999 12.8333 3.99999 12.4933 3.99999 12.0833C3.99999 11.6733 4.33999 11.3333 4.74999 11.3333Z" fill="#14142B"/>
<path d="M12.2394 3.58371C17.3894 3.58371 20.9894 7.18371 20.9894 12.3337C20.9894 17.4837 17.3894 21.0837 12.2394 21.0837C11.8294 21.0837 11.4894 20.7437 11.4894 20.3337C11.4894 19.9237 11.8294 19.5837 12.2394 19.5837C16.5094 19.5837 19.4894 16.6037 19.4894 12.3337C19.4894 8.06371 16.5094 5.08371 12.2394 5.08371C11.8294 5.08371 11.4894 4.74371 11.4894 4.33371C11.4894 3.92371 11.8294 3.58371 12.2394 3.58371Z" fill="#14142B"/>
</svg>
