<svg width="14" height="14" viewBox="0 0 14 14" fill="none" xmlns="http://www.w3.org/2000/svg">
<path d="M11.3832 5.3125C11.3832 5.3125 11.0212 9.8025 10.8112 11.6938C10.7112 12.5972 10.1532 13.1265 9.23924 13.1432C7.49991 13.1745 5.75858 13.1765 4.01991 13.1398C3.14058 13.1218 2.59191 12.5858 2.49391 11.6985C2.28258 9.7905 1.92258 5.3125 1.92258 5.3125" stroke="#1F1F37" stroke-width="1.5" stroke-linecap="round" stroke-linejoin="round"/>
<path d="M12.3055 3.15999H1.00012" stroke="#1F1F37" stroke-width="1.5" stroke-linecap="round" stroke-linejoin="round"/>
<path d="M10.127 3.15998C9.60371 3.15998 9.15304 2.78998 9.05037 2.27732L8.88837 1.46665C8.78837 1.09265 8.44971 0.833984 8.06371 0.833984H5.24171C4.85571 0.833984 4.51704 1.09265 4.41704 1.46665L4.25504 2.27732C4.15238 2.78998 3.70171 3.15998 3.17838 3.15998" stroke="#1F1F37" stroke-width="1.5" stroke-linecap="round" stroke-linejoin="round"/>
</svg>
