<svg width="28" height="28" viewBox="0 0 28 28" fill="none" xmlns="http://www.w3.org/2000/svg">
<rect width="28" height="28" rx="14" fill="#F3F3F6"/>
<path fill-rule="evenodd" clip-rule="evenodd" d="M12.2509 19.3519L18.1085 11.777C18.4268 11.3685 18.54 10.8962 18.4339 10.4153C18.3419 9.97817 18.0731 9.56251 17.6699 9.24719L16.6865 8.46604C15.8305 7.78523 14.7694 7.85689 14.161 8.63804L13.5031 9.49157C13.4182 9.59835 13.4394 9.75601 13.5455 9.84201C13.5455 9.84201 15.208 11.175 15.2434 11.2036C15.3566 11.3111 15.4414 11.4545 15.4627 11.6265C15.498 11.9633 15.2646 12.2786 14.9179 12.3216C14.7552 12.3431 14.5996 12.2929 14.4864 12.1998L12.739 10.8095C12.6541 10.7457 12.5268 10.7593 12.4561 10.8453L8.3034 16.2202C8.03457 16.557 7.9426 16.9942 8.03457 17.417L8.56515 19.7174C8.59344 19.8393 8.69956 19.9253 8.8269 19.9253L11.1614 19.8966C11.5859 19.8894 11.9821 19.6959 12.2509 19.3519ZM15.5197 18.6355H19.3265C19.6979 18.6355 19.9999 18.9415 19.9999 19.3177C19.9999 19.6947 19.6979 20 19.3265 20H15.5197C15.1483 20 14.8463 19.6947 14.8463 19.3177C14.8463 18.9415 15.1483 18.6355 15.5197 18.6355Z" fill="#9C9CAF"/>
</svg>
