<svg width="32" height="32" viewBox="0 0 32 32" fill="none" xmlns="http://www.w3.org/2000/svg">
<rect width="32" height="32" rx="16" fill="#FFC107"/>
<path fill-rule="evenodd" clip-rule="evenodd" d="M14.2509 21.3519L20.1085 13.777C20.4269 13.3685 20.5401 12.8962 20.4339 12.4153C20.342 11.9782 20.0731 11.5625 19.6699 11.2472L18.6866 10.466C17.8306 9.78523 16.7694 9.85689 16.161 10.638L15.5031 11.4916C15.4182 11.5983 15.4394 11.756 15.5455 11.842C15.5455 11.842 17.208 13.175 17.2434 13.2036C17.3566 13.3111 17.4415 13.4545 17.4627 13.6265C17.4981 13.9633 17.2646 14.2786 16.918 14.3216C16.7553 14.3431 16.5996 14.2929 16.4864 14.1998L14.7391 12.8095C14.6542 12.7457 14.5268 12.7593 14.4561 12.8453L10.3034 18.2202C10.0346 18.557 9.94263 18.9942 10.0346 19.417L10.5652 21.7174C10.5935 21.8393 10.6996 21.9253 10.8269 21.9253L13.1615 21.8966C13.5859 21.8894 13.9821 21.6959 14.2509 21.3519ZM17.5198 20.6355H21.3265C21.6979 20.6355 22 20.9415 22 21.3178C22 21.6947 21.6979 22 21.3265 22H17.5198C17.1484 22 16.8463 21.6947 16.8463 21.3178C16.8463 20.9415 17.1484 20.6355 17.5198 20.6355Z" fill="#FCFCFC"/>
</svg>
