<svg width="28" height="28" viewBox="0 0 28 28" fill="none" xmlns="http://www.w3.org/2000/svg">
<rect width="28" height="28" rx="14" fill="#F3F3F6"/>
<path d="M20.963 10.8316L16.5 10.1829L14.5048 6.13821C14.4504 6.02747 14.3607 5.93782 14.25 5.88333C13.9722 5.74622 13.6347 5.86048 13.4959 6.13821L11.5007 10.1829L7.03766 10.8316C6.91461 10.8492 6.80211 10.9072 6.71598 10.995C6.61185 11.1021 6.55447 11.2461 6.55645 11.3954C6.55842 11.5447 6.6196 11.6871 6.72653 11.7913L9.95563 14.9396L9.19274 19.3851C9.17485 19.4885 9.18629 19.5949 9.22577 19.6921C9.26525 19.7893 9.33118 19.8736 9.4161 19.9352C9.50101 19.9969 9.60151 20.0336 9.70619 20.041C9.81088 20.0485 9.91556 20.0265 10.0084 19.9775L14.0004 17.8786L17.9923 19.9775C18.1013 20.0355 18.2279 20.0548 18.3492 20.0337C18.655 19.981 18.8607 19.6909 18.808 19.3851L18.0451 14.9396L21.2742 11.7913C21.3621 11.7052 21.4201 11.5927 21.4377 11.4697C21.4851 11.162 21.2707 10.8773 20.963 10.8316Z" fill="#9C9CAF"/>
</svg>
