<svg width="28" height="28" viewBox="0 0 28 28" fill="none" xmlns="http://www.w3.org/2000/svg">
<rect width="28" height="28" rx="14" fill="#F3F3F6"/>
<path fill-rule="evenodd" clip-rule="evenodd" d="M19.174 14.0007C19.174 14.543 19.6194 14.9843 20.1667 14.9843C20.4427 14.9843 20.6667 15.2062 20.6667 15.4797V17.2639C20.6667 18.7727 19.428 20 17.9054 20H10.0954C8.57271 20 7.33337 18.7727 7.33337 17.2639V15.4797C7.33337 15.2062 7.55737 14.9843 7.83337 14.9843C8.38137 14.9843 8.82671 14.543 8.82671 14.0007C8.82671 13.4722 8.39937 13.0745 7.83337 13.0745C7.70071 13.0745 7.57404 13.0223 7.48004 12.9292C7.38604 12.8361 7.33337 12.7099 7.33337 12.5791L7.33471 10.7368C7.33471 9.22801 8.57337 8 10.096 8H17.904C19.4267 8 20.666 9.22801 20.666 10.7368L20.6667 12.5216C20.6667 12.6524 20.614 12.7793 20.5207 12.8717C20.4267 12.9649 20.3 13.0171 20.1667 13.0171C19.6194 13.0171 19.174 13.4583 19.174 14.0007ZM15.5012 14.4319L16.2872 13.6736C16.4239 13.5428 16.4712 13.3499 16.4119 13.1716C16.3532 12.9932 16.1999 12.8664 16.0146 12.8406L14.9286 12.6834L14.4426 11.7084C14.3592 11.5406 14.1899 11.4362 14.0012 11.4356H13.9999C13.8119 11.4356 13.6426 11.5399 13.5579 11.7077L13.0719 12.6834L11.9879 12.84C11.8006 12.8664 11.6472 12.9932 11.5879 13.1716C11.5292 13.3499 11.5766 13.5428 11.7126 13.6736L12.4986 14.4319L12.3132 15.5041C12.2812 15.689 12.3566 15.8727 12.5099 15.983C12.5966 16.0444 12.6972 16.0761 12.7992 16.0761C12.8772 16.0761 12.9559 16.057 13.0279 16.0193L13.9999 15.5133L14.9699 16.018C15.1379 16.1072 15.3372 16.0933 15.4899 15.9823C15.6439 15.8727 15.7192 15.689 15.6872 15.5041L15.5012 14.4319Z" fill="#9C9CAF"/>
</svg>
