<svg width="24" height="25" viewBox="0 0 24 25" fill="none" xmlns="http://www.w3.org/2000/svg">
<path fill-rule="evenodd" clip-rule="evenodd" d="M20.8066 7.95688L20.1842 6.87679C19.6576 5.96287 18.4907 5.64759 17.5755 6.17198V6.17198C17.1399 6.42861 16.6201 6.50142 16.1307 6.37435C15.6413 6.24729 15.2226 5.93078 14.9668 5.49464C14.8023 5.21742 14.7139 4.90166 14.7105 4.57931V4.57931C14.7254 4.06249 14.5304 3.56167 14.17 3.19094C13.8096 2.8202 13.3145 2.61113 12.7975 2.61134H11.5435C11.0369 2.61134 10.5513 2.81318 10.194 3.17221C9.83666 3.53124 9.63715 4.01786 9.63959 4.52439V4.52439C9.62457 5.57019 8.77246 6.41008 7.72654 6.40997C7.40419 6.40662 7.08843 6.31821 6.81121 6.15368V6.15368C5.89604 5.62928 4.72909 5.94456 4.20252 6.85848L3.53432 7.95688C3.00839 8.86966 3.31938 10.0359 4.22998 10.5656V10.5656C4.82188 10.9073 5.18651 11.5389 5.18651 12.2223C5.18651 12.9058 4.82188 13.5373 4.22998 13.8791V13.8791C3.32053 14.4052 3.0092 15.5686 3.53432 16.4786V16.4786L4.1659 17.5679C4.41262 18.013 4.82658 18.3416 5.31617 18.4807C5.80576 18.6199 6.33062 18.5582 6.7746 18.3093V18.3093C7.21106 18.0546 7.73117 17.9848 8.21932 18.1155C8.70747 18.2461 9.12321 18.5663 9.37414 19.0049C9.53867 19.2822 9.62709 19.5979 9.63043 19.9203V19.9203C9.63043 20.9768 10.4869 21.8333 11.5435 21.8333H12.7975C13.8505 21.8333 14.7055 20.9824 14.7105 19.9294V19.9294C14.7081 19.4213 14.9088 18.9333 15.2681 18.574C15.6274 18.2147 16.1155 18.0139 16.6236 18.0164C16.9452 18.025 17.2596 18.113 17.5389 18.2727V18.2727C18.4517 18.7986 19.6179 18.4876 20.1476 17.577V17.577L20.8066 16.4786C21.0617 16.0408 21.1317 15.5193 21.0012 15.0296C20.8706 14.54 20.5502 14.1226 20.111 13.8699V13.8699C19.6717 13.6172 19.3514 13.1998 19.2208 12.7102C19.0902 12.2206 19.1602 11.6991 19.4153 11.2612C19.5812 10.9716 19.8214 10.7315 20.111 10.5656V10.5656C21.0161 10.0362 21.3264 8.87676 20.8066 7.96603V7.96603V7.95688Z" stroke="#14142B" stroke-width="1.5" stroke-linecap="round" stroke-linejoin="round"/>
<circle cx="12.1751" cy="12.2223" r="2.63616" stroke="#14142B" stroke-width="1.5" stroke-linecap="round" stroke-linejoin="round"/>
</svg>
