<svg width="16" height="9" viewBox="0 0 16 9" fill="none" xmlns="http://www.w3.org/2000/svg">
<path d="M14.2843 5.42077L13.228 6.47708V2.59372C13.228 1.99637 12.9907 1.42336 12.5683 1.00091C12.1459 0.578594 11.573 0.341309 10.9756 0.341309H6.62619C6.43195 0.341309 6.25242 0.444836 6.15533 0.613075C6.05821 0.78131 6.05821 0.988619 6.15533 1.15673C6.25245 1.32496 6.43196 1.42862 6.62619 1.42862H10.9756C11.2846 1.42862 11.5809 1.55137 11.7994 1.76982C12.018 1.98841 12.1407 2.28464 12.1407 2.59369V6.47705L11.0843 5.42075C10.9436 5.31517 10.7604 5.28429 10.5928 5.33772C10.4251 5.39128 10.2937 5.52261 10.2402 5.69034C10.1866 5.85793 10.2176 6.04115 10.3232 6.18197L12.3115 8.17029L12.3892 8.23243H12.4358L12.4824 8.26344H12.9018L12.9484 8.23243H12.9951L13.0727 8.17029L15.0611 6.18197C15.197 6.0432 15.2486 5.8424 15.1965 5.65534C15.1443 5.46814 14.9962 5.32309 14.8081 5.27468C14.62 5.22637 14.4203 5.28198 14.2843 5.42075L14.2843 5.42077Z" fill="#1F1F37"/>
<path d="M1.04932 3.24615L2.10563 2.18984V6.0732C2.10563 6.67055 2.34293 7.24356 2.76523 7.66588C3.18768 8.08833 3.76069 8.32561 4.35804 8.32561H8.86298C9.05723 8.32561 9.23662 8.22195 9.33375 8.05384C9.43087 7.88561 9.43087 7.6783 9.33375 7.51006C9.23663 7.34183 9.05724 7.2383 8.86298 7.2383H4.35804C4.04899 7.2383 3.75275 7.11555 3.53416 6.89696C3.3157 6.6785 3.19296 6.38215 3.19296 6.07322V2.18986L4.24927 3.24616C4.34383 3.37225 4.48849 3.45105 4.64571 3.46219C4.80292 3.47347 4.95732 3.41581 5.06868 3.30433C5.18015 3.19286 5.23781 3.03859 5.22666 2.88136C5.21539 2.72414 5.13659 2.57949 5.01051 2.48492L3.02219 0.496598L2.94454 0.434456H2.91353L2.85139 0.403448L2.43189 0.40332L2.36975 0.434328H2.33874L2.26109 0.49647L0.272639 2.48493C0.133872 2.62087 0.0781363 2.82062 0.126571 3.00873C0.175005 3.19685 0.320047 3.34495 0.507133 3.3971C0.694331 3.44925 0.894977 3.39761 1.03376 3.26167L1.04932 3.24615Z" fill="#1F1F37"/>
</svg>
