<svg width="14" height="12" viewBox="0 0 14 12" fill="none" xmlns="http://www.w3.org/2000/svg">
<path d="M8.83334 1.33333C8.83334 1.30933 8.83486 1.2873 8.83743 1.26732L13.1172 5.15803C13.1362 5.1806 13.1667 5.23963 13.1667 5.33333C13.1667 5.42703 13.1362 5.48606 13.1172 5.50863L8.83743 9.39933C8.83486 9.37935 8.83334 9.35733 8.83334 9.33333V7.13333V6.63333H8.33334C5.34503 6.63333 2.72922 8.26893 1.18124 10.7267C1.15069 10.7707 1.11497 10.7927 1.07589 10.804C1.03029 10.8172 0.974008 10.8166 0.920585 10.7993C0.866183 10.7817 0.837715 10.7547 0.827854 10.7406C0.827669 10.7404 0.827478 10.7401 0.827285 10.7398C0.823425 10.7344 0.818197 10.7271 0.823184 10.7004C1.01893 9.78789 1.27342 8.90877 1.70691 8.10371L1.71172 8.09477L1.71617 8.08565C2.90882 5.63757 5.41254 3.83333 8.33334 3.83333H8.83334V3.33333V1.33333Z" stroke="black"/>
</svg>
