<svg width="10" height="10" viewBox="0 0 10 10" fill="none" xmlns="http://www.w3.org/2000/svg">
<path d="M7.95925 6.16C7.82975 6.2855 7.77025 6.467 7.79975 6.645L8.24426 9.105C8.28176 9.3135 8.19376 9.5245 8.01925 9.645C7.84825 9.77 7.62075 9.785 7.43425 9.685L5.21975 8.53C5.14275 8.489 5.05725 8.467 4.96975 8.4645H4.83425C4.78725 8.4715 4.74125 8.4865 4.69925 8.5095L2.48425 9.67C2.37475 9.725 2.25075 9.7445 2.12925 9.725C1.83325 9.669 1.63575 9.387 1.68425 9.0895L2.12925 6.6295C2.15875 6.45 2.09925 6.2675 1.96975 6.14L0.164255 4.39C0.0132548 4.2435 -0.0392452 4.0235 0.0297548 3.825C0.0967548 3.627 0.267755 3.4825 0.474255 3.45L2.95925 3.0895C3.14825 3.07 3.31425 2.955 3.39925 2.785L4.49425 0.54C4.52025 0.49 4.55375 0.444 4.59425 0.405L4.63925 0.37C4.66275 0.344 4.68975 0.3225 4.71975 0.305L4.77425 0.285L4.85925 0.25H5.06975C5.25775 0.2695 5.42325 0.382 5.50975 0.55L6.61925 2.785C6.69925 2.9485 6.85475 3.062 7.03426 3.0895L9.51925 3.45C9.72925 3.48 9.90475 3.625 9.97425 3.825C10.0398 4.0255 9.98326 4.2455 9.82926 4.39L7.95925 6.16Z" fill="#FFC720"/>
</svg>
