<svg width="24" height="25" viewBox="0 0 24 25" fill="none" xmlns="http://www.w3.org/2000/svg">
<path fill-rule="evenodd" clip-rule="evenodd" d="M13.1043 4.51032L14.9317 8.16107C15.1108 8.51947 15.4565 8.76799 15.8573 8.8255L19.9453 9.41393C20.9554 9.55975 21.3573 10.7839 20.6263 11.4853L17.6702 14.3258C17.3797 14.6051 17.2474 15.0066 17.3162 15.401L18.0138 19.4111C18.1856 20.4031 17.1298 21.16 16.227 20.6907L12.5732 18.796C12.215 18.6101 11.786 18.6101 11.4268 18.796L7.773 20.6907C6.87023 21.16 5.81439 20.4031 5.98724 19.4111L6.68385 15.401C6.75257 15.0066 6.62033 14.6051 6.32982 14.3258L3.37368 11.4853C2.64272 10.7839 3.04464 9.55975 4.05466 9.41393L8.14265 8.8255C8.54354 8.76799 8.89028 8.51947 9.06937 8.16107L10.8957 4.51032C11.3477 3.60764 12.6523 3.60764 13.1043 4.51032Z" stroke="#FFC107" stroke-width="1.5" stroke-linecap="round" stroke-linejoin="round"/>
</svg>
