<svg width="24" height="25" viewBox="0 0 24 25" fill="none" xmlns="http://www.w3.org/2000/svg">
<path fill-rule="evenodd" clip-rule="evenodd" d="M17.8572 20.7504C19.7302 20.7504 21.2492 19.2324 21.2502 17.3594V17.3574V14.6574C20.0132 14.6574 19.0112 13.6554 19.0102 12.4184C19.0102 11.1824 20.0122 10.1794 21.2492 10.1794H21.2502V7.47942C21.2522 5.60542 19.7352 4.08542 17.8622 4.08342H17.8562H6.1442C4.2702 4.08342 2.7512 5.60142 2.7502 7.47542V7.47642V10.2664C3.9442 10.2244 4.9452 11.1584 4.9872 12.3524C4.9882 12.3744 4.9892 12.3964 4.9892 12.4184C4.9902 13.6534 3.9912 14.6554 2.7562 14.6574H2.7502V17.3574C2.7492 19.2304 4.2682 20.7504 6.1412 20.7504H6.1422H17.8572Z" stroke="#FFC107" stroke-width="1.5" stroke-linecap="round" stroke-linejoin="round"/>
<path fill-rule="evenodd" clip-rule="evenodd" d="M12.3713 9.39642L12.9873 10.6434C13.0473 10.7654 13.1633 10.8504 13.2983 10.8704L14.6753 11.0714C15.0163 11.1214 15.1513 11.5394 14.9053 11.7784L13.9093 12.7484C13.8113 12.8434 13.7673 12.9804 13.7893 13.1154L14.0243 14.4854C14.0823 14.8244 13.7273 15.0824 13.4233 14.9224L12.1923 14.2754C12.0713 14.2114 11.9273 14.2114 11.8063 14.2754L10.5763 14.9224C10.2713 15.0824 9.9163 14.8244 9.9743 14.4854L10.2093 13.1154C10.2323 12.9804 10.1873 12.8434 10.0893 12.7484L9.0943 11.7784C8.8483 11.5394 8.9833 11.1214 9.3233 11.0714L10.7003 10.8704C10.8353 10.8504 10.9523 10.7654 11.0123 10.6434L11.6273 9.39642C11.7793 9.08842 12.2193 9.08842 12.3713 9.39642Z" stroke="#FFC107" stroke-width="1.5" stroke-linecap="round" stroke-linejoin="round"/>
</svg>
