<svg width="20" height="18" viewBox="0 0 20 18" fill="none" xmlns="http://www.w3.org/2000/svg">
<path fill-rule="evenodd" clip-rule="evenodd" d="M17.761 9.00099C17.761 9.81449 18.429 10.4764 19.25 10.4764C19.664 10.4764 20 10.8093 20 11.2195V13.8958C20 16.159 18.142 18 15.858 18H4.143C1.859 18 0 16.159 0 13.8958V11.2195C0 10.8093 0.336 10.4764 0.75 10.4764C1.572 10.4764 2.24 9.81449 2.24 9.00099C2.24 8.2083 1.599 7.6118 0.75 7.6118C0.551 7.6118 0.361 7.53352 0.22 7.39381C0.079 7.2541 0 7.06485 0 6.86866L0.002 4.10514C0.002 1.84201 1.86 0 4.144 0H15.856C18.14 0 19.999 1.84201 19.999 4.10514L20 6.78245C20 6.97864 19.921 7.16889 19.781 7.30761C19.64 7.44732 19.45 7.5256 19.25 7.5256C18.429 7.5256 17.761 8.18749 17.761 9.00099ZM12.2521 9.64805L13.4311 8.51054C13.6361 8.31435 13.7071 8.02502 13.6181 7.75749C13.5301 7.48996 13.3001 7.29971 13.0221 7.26107L11.3931 7.02524L10.6641 5.56273C10.5391 5.31105 10.2851 5.15449 10.0021 5.1535H10.0001C9.71813 5.1535 9.46413 5.31006 9.33713 5.56174L8.60813 7.02524L6.98213 7.26008C6.70113 7.29971 6.47113 7.48996 6.38213 7.75749C6.29413 8.02502 6.36513 8.31435 6.56913 8.51054L7.74813 9.64805L7.47013 11.2562C7.42213 11.5337 7.53513 11.8091 7.76513 11.9746C7.89513 12.0667 8.04613 12.1143 8.19913 12.1143C8.31613 12.1143 8.43413 12.0856 8.54213 12.0291L10.0001 11.2701L11.4551 12.0271C11.7071 12.1609 12.0061 12.1401 12.2351 11.9736C12.4661 11.8091 12.5791 11.5337 12.5311 11.2562L12.2521 9.64805Z" fill="#FC2170"/>
</svg>
