<svg width="6" height="5" viewBox="0 0 6 5" fill="none" xmlns="http://www.w3.org/2000/svg">
<path d="M5.95705 4.40083L3.20237 0.603178C3.10237 0.465678 2.89768 0.465678 2.79846 0.603178L0.0429906 4.40083C0.0362096 4.41017 0.0321475 4.42121 0.0312543 4.43272C0.0303612 4.44422 0.0326719 4.45575 0.0379305 4.46603C0.0431891 4.4763 0.0511901 4.48492 0.0610465 4.49093C0.070903 4.49693 0.0822299 4.50009 0.0937719 4.50005H0.679709C0.719553 4.50005 0.757053 4.48052 0.780491 4.44849L3.00002 1.38912L5.21955 4.44849C5.24299 4.48052 5.28049 4.50005 5.32033 4.50005H5.90627C5.95705 4.50005 5.98674 4.44224 5.95705 4.40083Z" fill="#6B6B80"/>
</svg>
