<svg width="24" height="25" viewBox="0 0 24 25" fill="none" xmlns="http://www.w3.org/2000/svg">
<path fill-rule="evenodd" clip-rule="evenodd" d="M9.5915 15.5401C13.2805 15.5401 16.4335 16.0991 16.4335 18.3321C16.4335 20.5651 13.3015 21.1401 9.5915 21.1401C5.9015 21.1401 2.7495 20.5861 2.7495 18.3521C2.7495 16.1181 5.8805 15.5401 9.5915 15.5401Z" stroke="#14142B" stroke-width="1.5" stroke-linecap="round" stroke-linejoin="round"/>
<path fill-rule="evenodd" clip-rule="evenodd" d="M9.5915 12.3531C7.1695 12.3531 5.2055 10.3901 5.2055 7.9681C5.2055 5.5461 7.1695 3.5831 9.5915 3.5831C12.0125 3.5831 13.9765 5.5461 13.9765 7.9681C13.9855 10.3811 12.0355 12.3441 9.6225 12.3531H9.5915Z" stroke="#14142B" stroke-width="1.5" stroke-linecap="round" stroke-linejoin="round"/>
<path d="M16.4831 11.2149C18.0841 10.9899 19.3171 9.6159 19.3201 7.9529C19.3201 6.3139 18.1251 4.9539 16.5581 4.6969" stroke="#14142B" stroke-width="1.5" stroke-linecap="round" stroke-linejoin="round"/>
<path d="M18.5954 15.0655C20.1464 15.2965 21.2294 15.8405 21.2294 16.9605C21.2294 17.7315 20.7194 18.2315 19.8954 18.5445" stroke="#14142B" stroke-width="1.5" stroke-linecap="round" stroke-linejoin="round"/>
</svg>
