<svg width="24" height="25" viewBox="0 0 24 25" fill="none" xmlns="http://www.w3.org/2000/svg">
<path fill-rule="evenodd" clip-rule="evenodd" d="M2.50185 12.3334C2.49906 13.5631 2.44419 15.2403 3.20494 15.8672C3.91453 16.452 4.41395 16.3013 5.70945 16.3964C7.00587 16.4924 9.74195 20.3033 11.8512 19.0979C12.9393 18.2422 13.0202 16.4484 13.0202 12.3334C13.0202 8.21847 12.9393 6.42466 11.8512 5.56902C9.74195 4.36269 7.00587 8.17452 5.70945 8.27049C4.41395 8.36556 3.91453 8.21488 3.20494 8.79966C2.44419 9.42659 2.49906 11.1038 2.50185 12.3334Z" stroke="#14142B" stroke-width="1.5" stroke-linecap="round" stroke-linejoin="round"/>
<path d="M19.5843 6.2373C22.1344 9.90832 22.1428 14.7507 19.5843 18.4289" stroke="#14142B" stroke-width="1.5" stroke-linecap="round" stroke-linejoin="round"/>
<path d="M17.0813 8.64772C18.3926 10.9384 18.3926 13.7358 17.0813 16.0194" stroke="#14142B" stroke-width="1.5" stroke-linecap="round" stroke-linejoin="round"/>
</svg>
